<?xml version="1.0" encoding="iso-8859-1"?>
<!-- Generator: Adobe Illustrator 19.0.0, SVG Export Plug-In . SVG Version: 6.00 Build 0)  -->
<!-- License: CC0. Made by SVG Repo: https://www.svgrepo.com/svg/137053/bowling -->
<svg version="1.1" id="Capa_1" xmlns="http://www.w3.org/2000/svg" xmlns:xlink="http://www.w3.org/1999/xlink" x="0px" y="0px"
	 viewBox="0 0 399.448 399.448" style="enable-background:new 0 0 399.448 399.448;" xml:space="preserve">
<path id="XMLID_461_" d="M304.843,244.627c-2.91-40.305-22.818-62.79-40.384-82.628c-9.563-10.8-18.595-21.001-23.972-33.032
	c-5.039-11.277-3.235-24.439,4.708-34.351c15.263-19.041,16.881-45.146,4.224-68.128c-4.216-7.654-10.556-13.934-18.334-18.16
	C220.914,2.802,210.362,0,199.725,0c-32.114,0-58.241,26.126-58.241,58.24c0,13.223,4.325,25.688,12.508,36.049
	c8.249,10.443,9.91,24.244,4.334,36.016c-5.424,11.454-14.133,21.292-23.353,31.708c-17.559,19.836-37.46,42.318-40.369,82.615
	c-3.271,45.51,24.447,107.04,36.516,131.382c7.168,14.457,21.674,23.438,37.858,23.438h61.453c16.177,0,30.681-8.976,37.851-23.425
	C280.366,351.679,308.115,290.141,304.843,244.627z"/>
</svg>
