<svg width="25" height="24" viewBox="0 0 25 24" fill="none" xmlns="http://www.w3.org/2000/svg">
<rect x="0.5" width="24" height="24" rx="12" fill="#5a9b2d"/>
<path d="M13.2246 18.2586L13.6549 18.5133L13.2246 18.2586ZM13.586 17.6481L13.1557 17.3934L13.586 17.6481ZM11.4143 17.6481L10.984 17.9027L11.4143 17.6481ZM11.7757 18.2586L12.206 18.0039L11.7757 18.2586ZM6.08723 14.6091L6.54917 14.4178H6.54917L6.08723 14.6091ZM9.69322 16.6611L9.6846 17.1611H9.6846L9.69322 16.6611ZM7.89122 16.4131L7.69988 16.875L7.69988 16.875L7.89122 16.4131ZM18.9131 14.6091L19.375 14.8004L18.9131 14.6091ZM15.3071 16.6611L15.2985 16.1612L15.3071 16.6611ZM17.1091 16.4131L17.3005 16.875V16.875L17.1091 16.4131ZM17.5752 5.8247L17.3139 6.25102V6.25102L17.5752 5.8247ZM18.6756 6.92517L19.102 6.66392V6.66392L18.6756 6.92517ZM7.42517 5.8247L7.16392 5.39838V5.39838L7.42517 5.8247ZM6.3247 6.92517L5.89838 6.66392H5.89838L6.3247 6.92517ZM10.7687 16.8067L11.0201 16.3745L11.0201 16.3745L10.7687 16.8067ZM13.2246 18.2586L13.6549 18.5133L14.0163 17.9027L13.586 17.6481L13.1557 17.3934L12.7943 18.0039L13.2246 18.2586ZM11.4143 17.6481L10.984 17.9027L11.3454 18.5133L11.7757 18.2586L12.206 18.0039L11.8446 17.3934L11.4143 17.6481ZM13.2246 18.2586L12.7943 18.0039C12.6658 18.2211 12.3345 18.2211 12.206 18.0039L11.7757 18.2586L11.3454 18.5133C11.8611 19.3846 13.1392 19.3846 13.6549 18.5133L13.2246 18.2586ZM11.5002 5.3335V5.8335H13.5002V5.3335V4.8335H11.5002V5.3335ZM19.1668 11.0002H18.6668V11.6668H19.1668H19.6668V11.0002H19.1668ZM5.8335 11.6668H6.3335V11.0002H5.8335H5.3335V11.6668H5.8335ZM5.8335 11.6668H5.3335C5.3335 12.4366 5.33323 13.0389 5.36637 13.5247C5.39983 14.015 5.46898 14.4231 5.62529 14.8004L6.08723 14.6091L6.54917 14.4178C6.45175 14.1826 6.39403 13.896 6.36405 13.4566C6.33377 13.0128 6.3335 12.4502 6.3335 11.6668H5.8335ZM9.69322 16.6611L9.70183 16.1612C8.86487 16.1468 8.42632 16.0935 8.08256 15.9512L7.89122 16.4131L7.69988 16.875C8.23653 17.0973 8.84775 17.1466 9.6846 17.1611L9.69322 16.6611ZM6.08723 14.6091L5.62529 14.8004C6.01435 15.7397 6.7606 16.486 7.69988 16.875L7.89122 16.4131L8.08256 15.9512C7.38831 15.6636 6.83674 15.112 6.54917 14.4178L6.08723 14.6091ZM19.1668 11.6668H18.6668C18.6668 12.4502 18.6666 13.0128 18.6363 13.4566C18.6063 13.896 18.5486 14.1826 18.4512 14.4178L18.9131 14.6091L19.375 14.8004C19.5313 14.4231 19.6005 14.015 19.634 13.5247C19.6671 13.0389 19.6668 12.4366 19.6668 11.6668H19.1668ZM15.3071 16.6611L15.3157 17.1611C16.1526 17.1466 16.7638 17.0973 17.3005 16.875L17.1091 16.4131L16.9178 15.9512C16.574 16.0935 16.1354 16.1468 15.2985 16.1612L15.3071 16.6611ZM18.9131 14.6091L18.4512 14.4178C18.1636 15.112 17.612 15.6636 16.9178 15.9512L17.1091 16.4131L17.3005 16.875C18.2397 16.486 18.986 15.7397 19.375 14.8004L18.9131 14.6091ZM13.5002 5.3335V5.8335C14.601 5.8335 15.3915 5.83402 16.0081 5.89265C16.6173 5.95057 17.0049 6.06165 17.3139 6.25102L17.5752 5.8247L17.8364 5.39838C17.3439 5.09654 16.7851 4.96202 16.1028 4.89714C15.4278 4.83297 14.5816 4.8335 13.5002 4.8335V5.3335ZM19.1668 11.0002H19.6668C19.6668 9.9187 19.6674 9.07249 19.6032 8.39757C19.5383 7.7152 19.4038 7.15647 19.102 6.66392L18.6756 6.92517L18.2493 7.18642C18.4387 7.49543 18.5498 7.88305 18.6077 8.49222C18.6663 9.10883 18.6668 9.89934 18.6668 11.0002H19.1668ZM17.5752 5.8247L17.3139 6.25102C17.6951 6.48464 18.0157 6.80518 18.2493 7.18642L18.6756 6.92517L19.102 6.66392C18.7859 6.14812 18.3522 5.71446 17.8364 5.39838L17.5752 5.8247ZM11.5002 5.3335V4.8335C10.4187 4.8335 9.57249 4.83297 8.89757 4.89714C8.2152 4.96202 7.65647 5.09654 7.16392 5.39838L7.42517 5.8247L7.68642 6.25102C7.99543 6.06165 8.38305 5.95057 8.99222 5.89265C9.60883 5.83402 10.3993 5.8335 11.5002 5.8335V5.3335ZM5.8335 11.0002H6.3335C6.3335 9.89934 6.33402 9.10883 6.39265 8.49222C6.45057 7.88305 6.56165 7.49543 6.75102 7.18642L6.3247 6.92517L5.89838 6.66392C5.59654 7.15647 5.46202 7.7152 5.39714 8.39757C5.33297 9.07249 5.3335 9.9187 5.3335 11.0002H5.8335ZM7.42517 5.8247L7.16392 5.39838C6.64812 5.71446 6.21446 6.14812 5.89838 6.66392L6.3247 6.92517L6.75102 7.18642C6.98464 6.80518 7.30518 6.48464 7.68642 6.25102L7.42517 5.8247ZM11.4143 17.6481L11.8446 17.3934C11.7092 17.1647 11.5904 16.9629 11.4749 16.8044C11.3532 16.6374 11.2136 16.4871 11.0201 16.3745L10.7687 16.8067L10.5173 17.2389C10.5489 17.2573 10.592 17.2908 10.6667 17.3934C10.7476 17.5044 10.8391 17.6578 10.984 17.9027L11.4143 17.6481ZM9.69322 16.6611L9.6846 17.1611C9.97733 17.1661 10.1627 17.1698 10.3041 17.1855C10.4362 17.2001 10.4874 17.2215 10.5173 17.2389L10.7687 16.8067L11.0201 16.3745C10.8249 16.261 10.6218 16.2145 10.4141 16.1915C10.2158 16.1696 9.97599 16.1659 9.70183 16.1612L9.69322 16.6611ZM13.586 17.6481L14.0163 17.9027C14.1612 17.6578 14.2527 17.5044 14.3336 17.3934C14.4083 17.2908 14.4514 17.2573 14.483 17.2389L14.2316 16.8067L13.9802 16.3745C13.7867 16.4871 13.6471 16.6374 13.5254 16.8044C13.4099 16.9629 13.2911 17.1647 13.1557 17.3934L13.586 17.6481ZM15.3071 16.6611L15.2985 16.1612C15.0243 16.1659 14.7845 16.1696 14.5862 16.1915C14.3785 16.2145 14.1754 16.261 13.9802 16.3745L14.2316 16.8067L14.483 17.2389C14.5129 17.2215 14.5641 17.2001 14.6962 17.1855C14.8376 17.1698 15.023 17.1661 15.3157 17.1611L15.3071 16.6611Z" fill="white"/>
<path d="M9.8335 11.3335H9.8395M12.4942 11.3335H12.5002M15.1608 11.3335H15.1668" stroke="white" stroke-width="1.33333" stroke-linecap="round" stroke-linejoin="round"/>
</svg>
