<svg width="62" height="62" viewBox="0 0 62 62" fill="none" xmlns="http://www.w3.org/2000/svg">
<path d="M28.8496 1.36024C30.0035 0.0937521 31.9965 0.0937524 33.1504 1.36024L36.3697 4.8937C37.1352 5.73385 38.3198 6.05128 39.4028 5.70642L43.9576 4.25601C45.5901 3.73615 47.3161 4.73266 47.6822 6.40641L48.7035 11.0761C48.9463 12.1865 49.8135 13.0537 50.9239 13.2965L55.5936 14.3178C57.2673 14.6839 58.2639 16.4099 57.744 18.0424L56.2936 22.5972C55.9487 23.6802 56.2661 24.8648 57.1063 25.6303L60.6398 28.8496C61.9062 30.0035 61.9062 31.9965 60.6398 33.1504L57.1063 36.3697C56.2661 37.1352 55.9487 38.3198 56.2936 39.4028L57.744 43.9576C58.2639 45.5901 57.2673 47.3161 55.5936 47.6822L50.9239 48.7035C49.8135 48.9463 48.9463 49.8135 48.7035 50.9239L47.6822 55.5936C47.3161 57.2673 45.5901 58.2639 43.9576 57.744L39.4028 56.2936C38.3198 55.9487 37.1352 56.2661 36.3697 57.1063L33.1504 60.6398C31.9965 61.9062 30.0035 61.9062 28.8496 60.6398L25.6303 57.1063C24.8648 56.2661 23.6802 55.9487 22.5972 56.2936L18.0424 57.744C16.4099 58.2639 14.6839 57.2673 14.3178 55.5936L13.2965 50.9239C13.0537 49.8135 12.1865 48.9463 11.0761 48.7035L6.40641 47.6822C4.73266 47.3161 3.73615 45.5901 4.25601 43.9576L5.70642 39.4028C6.05128 38.3198 5.73385 37.1352 4.8937 36.3697L1.36024 33.1504C0.0937521 31.9965 0.0937524 30.0035 1.36024 28.8496L4.8937 25.6303C5.73385 24.8648 6.05128 23.6802 5.70642 22.5972L4.25601 18.0424C3.73615 16.4099 4.73266 14.6839 6.40641 14.3178L11.0761 13.2965C12.1865 13.0537 13.0537 12.1865 13.2965 11.0761L14.3178 6.40641C14.6839 4.73266 16.4099 3.73615 18.0424 4.25601L22.5972 5.70642C23.6802 6.05128 24.8648 5.73385 25.6303 4.8937L28.8496 1.36024Z" fill="#747AFA"/>
</svg>
